<?xml version="1.0" standalone="no"?>
<!DOCTYPE svg PUBLIC "-//W3C//DTD SVG 20010904//EN"
 "http://www.w3.org/TR/2001/REC-SVG-20010904/DTD/svg10.dtd">
<svg version="1.0" xmlns="http://www.w3.org/2000/svg"
 width="500.000000pt" height="499.000000pt" viewBox="0 0 500.000000 499.000000"
 preserveAspectRatio="xMidYMid meet">

<g transform="translate(0.000000,499.000000) scale(0.100000,-0.100000)"
fill="#000000" stroke="none">
<path d="M948 4949 c-251 -50 -510 -208 -663 -404 -159 -203 -234 -397 -256
-660 -7 -87 -9 -581 -6 -1480 3 -1184 6 -1359 20 -1425 64 -303 220 -558 446
-728 144 -109 352 -193 539 -217 161 -22 2809 -21 2961 0 459 65 839 401 949
840 42 164 42 187 45 1630 2 1329 1 1405 -17 1500 -50 270 -151 462 -338 641
-143 137 -323 239 -515 292 l-98 27 -1485 2 c-1435 1 -1488 1 -1582 -18z
m3322 -844 l0 -355 -185 -593 c-101 -325 -267 -857 -369 -1182 l-184 -590 402
-5 401 -5 0 -415 0 -415 -1832 -3 -1833 -2 0 1953 c0 1075 3 1957 6 1960 4 4
814 6 1800 6 l1794 0 0 -354z"/>
<path d="M1680 3280 l0 -330 325 0 325 0 0 -380 0 -380 -325 0 -325 0 0 -405
0 -405 425 0 424 0 200 608 c110 334 272 830 362 1102 89 272 164 501 166 508
4 9 -157 12 -786 12 l-791 0 0 -330z"/>
</g>
</svg>
